<svg xmlns="http://www.w3.org/2000/svg" viewBox="0 0 124 92.13"><title>logo</title><g id="Layer_2" data-name="Layer 2"><g id="Layer_1-2" data-name="Layer 1"><path d="M0,39.92H12.2v5.9a31.58,31.58,0,0,1-.2,3.5h.2a19.78,19.78,0,0,1,18.1-10.6c11.3,0,17.7,5.9,17.7,19.4v32.8H35.4V60.72c0-6.2-1.6-10.4-8.1-10.4-6.8,0-11.8,4.3-13.7,10.4a21.51,21.51,0,0,0-.9,6.8v23.4H0Z"/><path d="M57.3,19.92H70v21.9c0,2.5-.2,4.3-.2,4.3H70s4.5-7.4,15.3-7.4c13.8,0,22.6,10.9,22.6,26.7,0,16.2-9.9,26.7-23.4,26.7a18,18,0,0,1-15.2-7.6h-.2a29.36,29.36,0,0,1,.2,3.5v2.9h-12Zm25,61.5c7,0,12.8-5.7,12.8-15.8,0-9.7-5.2-16-12.7-16-6.6,0-12.8,4.8-12.8,16.1C69.6,73.62,73.8,81.42,82.3,81.42Z"/><line x1="124" y1="5" x2="0.02" y2="5" fill="none" stroke="#c60" stroke-miterlimit="10" stroke-width="10"/></g></g></svg>